<?xml version="1.0" encoding="iso-8859-1"?>
<!-- Generator: Adobe Illustrator 19.0.0, SVG Export Plug-In . SVG Version: 6.00 Build 0)  -->
<svg version="1.1" id="Layer_1" xmlns="http://www.w3.org/2000/svg" xmlns:xlink="http://www.w3.org/1999/xlink" x="0px" y="0px"
	 viewBox="0 0 512 512" style="enable-background:new 0 0 512 512;" xml:space="preserve">
<g>
	<g>
		<path d="M256,0C161.899,0,85.333,76.565,85.333,170.667c0,86.869,65.301,158.635,149.333,169.173v150.827
			c0,11.776,9.557,21.333,21.333,21.333c11.797,0,21.333-9.557,21.333-21.333V339.84c84.053-10.539,149.333-82.304,149.333-169.173
			C426.667,76.565,350.123,0,256,0z M317.76,137.536l-42.667,85.333c-1.024,2.027-2.347,3.776-3.84,5.312
			c-0.064,0.064-0.085,0.149-0.171,0.235c-0.213,0.213-0.491,0.277-0.725,0.491c-1.621,1.472-3.435,2.667-5.397,3.584
			c-0.619,0.277-1.195,0.555-1.835,0.789c-2.261,0.811-4.629,1.365-7.061,1.365c0,0-0.043,0.021-0.064,0.021
			c-2.411,0-4.821-0.555-7.168-1.408c-0.448-0.149-0.875-0.277-1.301-0.469c-0.363-0.149-0.725-0.213-1.067-0.384
			c-1.088-0.533-1.792-1.451-2.731-2.133c-0.917-0.661-1.984-1.045-2.816-1.856l-42.667-42.667c-8.32-8.341-8.32-21.845,0-30.165
			c8.341-8.341,21.845-8.341,30.187,0l21.717,21.739l29.44-58.88c5.291-10.539,18.091-14.784,28.629-9.536
			C318.763,114.176,323.029,126.997,317.76,137.536z"/>
	</g>
</g>
<g>
</g>
<g>
</g>
<g>
</g>
<g>
</g>
<g>
</g>
<g>
</g>
<g>
</g>
<g>
</g>
<g>
</g>
<g>
</g>
<g>
</g>
<g>
</g>
<g>
</g>
<g>
</g>
<g>
</g>
</svg>
